<svg width="1060" height="606" viewBox="0 0 1060 606" fill="none" xmlns="http://www.w3.org/2000/svg">
<path opacity="0.7" d="M1541.81 -63.3829L1540.39 -66.9443L1536.63 -67.6633L21.3123 -356.876L10.2616 -358.985L13.2518 -348.139C35.5047 -267.427 48.4273 -176.015 61.7767 -81.5851C67.9354 -38.0197 74.1849 6.18798 81.4833 50.2836C104.495 189.318 137.899 326.588 212.409 434.535C297.791 558.233 475.81 611.697 664.982 596.466C783.253 596.402 846.194 556.471 896.643 513.19C906.44 504.785 915.678 496.362 924.688 488.148C962.254 453.898 995.853 423.266 1049.47 412.578C1082.99 405.897 1116.85 406.249 1151.89 408.014C1159.74 408.409 1167.66 408.877 1175.65 409.349C1203.08 410.97 1231.3 412.637 1260 411.569C1334.88 408.784 1413.75 387.413 1499.12 300.138C1566.27 231.484 1576.56 140.002 1570.51 66.7371C1567.48 30.0109 1560.33 -2.45367 1553.94 -25.7291C1550.74 -37.3752 1547.73 -46.743 1545.51 -53.2192C1544.39 -56.4578 1543.48 -58.9749 1542.84 -60.694C1542.52 -61.5537 1542.27 -62.2139 1542.1 -62.6652C1542.01 -62.8908 1541.94 -63.0642 1541.89 -63.1843L1541.84 -63.324L1541.82 -63.3636L1541.82 -63.3758C1541.82 -63.3798 1541.81 -63.3829 1535.31 -60.7874L1541.81 -63.3829Z" stroke="url(#paint0_linear_1109_2)" stroke-width="14"/>
<path d="M1501.31 -70.6279C1501.31 -70.6279 1587.32 144.711 1461.5 273.289C1299.22 439.137 1163.5 353.5 1030.5 380C897.5 406.5 884.956 557.5 660 557.5C478.206 572.197 309.07 520.682 228.5 404C86.3091 198.078 100.091 -121.252 37 -350L1501.31 -70.6279Z" fill="url(#paint1_linear_1109_2)" fill-opacity="0.2"/>
<defs>
<linearGradient id="paint0_linear_1109_2" x1="1177.5" y1="873" x2="792.5" y2="-350" gradientUnits="userSpaceOnUse">
<stop stop-color="#EFAB18"/>
<stop offset="1" stop-color="#FFF0D0"/>
</linearGradient>
<linearGradient id="paint1_linear_1109_2" x1="424.5" y1="766" x2="1076.67" y2="-132.402" gradientUnits="userSpaceOnUse">
<stop stop-color="#CD8BE6"/>
<stop offset="1" stop-color="#4B95FF"/>
</linearGradient>
</defs>
</svg>
