<svg width="586" height="317" viewBox="0 0 586 317" fill="none" xmlns="http://www.w3.org/2000/svg">
<path d="M104.053 252.365C104.053 252.365 94.044 240.686 103.436 233.263C103.436 233.263 110.298 229.111 115.893 229.443C115.893 229.443 107.959 242.737 110.53 244.06C113.101 245.382 118.294 228.611 118.294 228.611C118.294 228.611 133.91 227.095 138.933 229.51C138.933 229.51 125.585 240.433 128.395 241.083C131.204 241.732 145.624 231.012 145.624 231.012C145.624 231.012 160.156 233.486 159.38 242.352C158.604 251.218 153.6 253.954 151.399 253.716C149.198 253.478 136.323 248.568 136.044 250.372C135.765 252.176 143.511 258.066 148.939 258.342C148.939 258.342 138.692 269.641 131.895 266.382C125.097 263.123 124.504 257.951 120.257 256.011C116.011 254.072 112.39 254.078 114.142 256.056C115.893 258.033 123.578 259.955 126.005 264.249C128.433 268.542 130.61 271.437 123.563 270.379C116.516 269.321 105.067 264.163 104.565 258.26L104.053 252.365Z" fill="#4E92F9"/>
<path d="M152.24 242.599C152.24 242.599 112.773 241.077 104.045 252.364C104.045 252.364 102.117 258.139 96.1869 263.396L95.2612 265.915C95.2612 265.915 102.103 258.706 104.548 258.274C104.556 258.268 100.73 244.283 152.24 242.599Z" fill="#3A49CD"/>
<path d="M96.1977 263.396C96.1977 263.396 87.7254 269.662 87.1377 280.855L88.6746 280.993C88.6746 280.993 91.3812 269.418 96.2712 264.892C101.161 260.366 96.1977 263.396 96.1977 263.396Z" fill="#3A49CD"/>
<path d="M69.0565 237.68C69.0565 237.68 84.9784 228.761 77.5464 216.659C77.5464 216.659 71.6014 209.227 65.2332 207.317C65.2332 207.317 68.6304 225.364 65.2332 225.79C61.8361 226.216 62.8822 205.407 62.8822 205.407C62.8822 205.407 46.1081 197.337 39.5284 197.975C39.5284 197.975 49.9314 215.607 46.5342 215.172C43.1371 214.738 31.4586 196.914 31.4586 196.914C31.4586 196.914 14.2613 193.729 11.5019 203.92C8.74244 214.112 13.2005 219.201 15.7483 219.845C18.2962 220.489 34.6442 220.268 34.221 222.393C33.7979 224.518 22.7601 227.912 16.5888 226.002C16.5888 226.002 23.3831 242.776 32.2991 241.926C41.2152 241.077 43.9775 235.555 49.4994 235.132C55.0212 234.709 59.0531 236.193 56.2937 237.68C53.5342 239.167 44.1891 238.165 39.7311 241.956C35.2731 245.747 31.6643 248.083 39.9427 249.782C48.221 251.48 63.085 250.419 66.059 244.048L69.0565 237.68Z" fill="#4E92F9"/>
<path d="M19.3711 207.105C19.3711 207.105 63.9601 221.543 69.0558 237.668C69.0558 237.668 68.8413 244.885 73.2993 253.167V256.352C73.2993 256.352 68.6297 245.523 66.0819 244.036C66.0819 244.048 76.0617 230.036 19.3711 207.105Z" fill="#93B3F4"/>
<path d="M73.2991 253.178C73.2991 253.178 80.1757 263.62 76.2554 276.329L74.4922 275.853C74.4922 275.853 76.2114 261.856 72.6144 254.815C69.0174 247.774 73.2991 253.178 73.2991 253.178Z" fill="#93B3F4"/>
<path d="M94.3873 225.381C94.3873 225.381 73.3962 213.626 83.1938 197.672C83.1938 197.672 91.0284 187.877 99.4272 185.359C99.4272 185.359 94.9486 209.148 99.4272 209.706C103.906 210.264 102.504 182.84 102.504 182.84C102.504 182.84 124.615 172.202 133.29 173.043C133.29 173.043 119.578 196.258 124.054 195.715C128.529 195.171 143.925 171.644 143.925 171.644C143.925 171.644 166.597 167.444 170.235 180.88C173.873 194.316 167.996 201.031 164.652 201.871C161.308 202.712 139.743 202.43 140.302 205.227C140.86 208.025 155.415 212.507 163.517 209.988C163.517 209.988 154.56 232.096 142.805 230.976C131.051 229.857 127.413 222.58 120.136 222.022C112.86 221.464 107.541 223.421 111.182 225.381C114.823 227.341 127.133 226.022 133.011 231.017C138.888 236.013 143.646 239.093 132.717 241.332C121.788 243.572 102.21 242.173 98.2929 233.777L94.3873 225.381Z" fill="#4E92F9"/>
<path d="M159.88 185.077C159.88 185.077 101.106 204.111 94.3882 225.382C94.3882 225.382 94.6821 234.897 88.8047 245.811V250.011C88.8047 250.011 94.976 235.738 98.3232 233.777C98.3085 233.777 85.1519 215.305 159.88 185.077Z" fill="#3A49CD"/>
<path d="M88.7888 245.811C88.7888 245.811 79.7259 259.576 84.8951 276.33L87.2254 275.704C87.2254 275.704 84.9626 257.249 89.7028 247.968C94.4429 238.688 88.7888 245.811 88.7888 245.811Z" fill="#3A49CD"/>
<path d="M93.6828 312.664C99.0824 312.664 104.429 311.6 109.418 309.534C114.406 307.467 118.939 304.439 122.757 300.62C126.575 296.802 129.603 292.269 131.669 287.281C133.735 282.292 134.799 276.945 134.798 271.545H52.5645C52.5641 276.945 53.6274 282.292 55.6936 287.281C57.7599 292.27 60.7886 296.803 64.6069 300.621C68.4251 304.44 72.9582 307.468 77.9471 309.535C82.936 311.601 88.283 312.664 93.6828 312.664Z" fill="#EFAB18"/>
<path d="M103.797 312.349C98.0119 313.069 92.1398 312.552 86.5698 310.83C80.9998 309.109 75.8592 306.224 71.4886 302.366C67.1181 298.508 63.6174 293.765 61.2185 288.451C58.8197 283.138 57.5775 277.375 57.5742 271.545H67.7892C67.7894 281.566 71.4483 291.242 78.0786 298.755C84.7089 306.269 93.8544 311.103 103.797 312.349Z" fill="#FFCF69"/>
<path d="M135.368 314.756H51.9937C51.9944 313.411 52.5295 312.121 53.4812 311.17C54.4329 310.218 55.7233 309.684 57.0688 309.684H130.287C131.632 309.684 132.923 310.218 133.874 311.17C134.826 312.121 135.361 313.411 135.362 314.756H135.368Z" fill="#EFAB18"/>
<path d="M135.736 271.545H51.2124V272.806H135.736V271.545Z" fill="#EFAB18"/>
<path d="M500.415 300.838C500.415 300.838 501.267 314.583 503.924 314.78C504.279 314.806 517.412 314.806 517.412 314.806L534.163 314.706C534.163 314.706 534.054 310.668 529.167 309.813C524.28 308.958 516.064 305.517 513.096 299.04C509.972 292.225 500.415 300.838 500.415 300.838Z" fill="#060632"/>
<path d="M491.466 138.293C491.466 138.293 499.38 142.792 501.595 142.792C503.811 142.792 512.507 141.111 514.931 142.348C517.356 143.586 521.743 148.573 522.572 150.201C524.041 153.139 516.612 151.835 513.095 149.34C512.842 149.16 512.555 149.035 512.251 148.973C511.948 148.91 511.634 148.912 511.331 148.978C509.509 149.375 505.724 150.062 503.896 149.387C501.44 148.479 488.498 147.468 488.498 147.468L491.466 138.293Z" fill="#FFF0F0"/>
<path d="M431.252 77.0001C431.252 77.0001 439.454 135.313 453.04 140.535C459.743 143.112 489.371 148.954 498.135 149.542C498.135 149.542 500.28 147.799 499.757 140.726C499.757 140.726 468.718 129.33 464.31 123.135C457.748 113.91 468.383 85.4548 460.149 76.7944C451.915 68.134 438.044 64.3931 431.252 77.0001Z" fill="#B78EC6"/>
<path d="M434.015 199.853C436.423 203.852 439.101 207.681 442.032 211.314C450.848 222.446 460.448 231.626 462.121 240.301C462.5 242.188 463.018 244.045 463.669 245.855C464.369 247.842 465.23 249.931 466.229 252.091C469.97 260.22 475.565 269.327 481.152 277.608C490.811 291.917 499.892 303.86 499.892 303.86L516.548 303.151C515.881 301.479 508.614 281.719 498.899 257.572C494.955 247.769 490.758 237.339 486.709 227.286L485.095 223.277C483.858 220.2 482.642 217.171 481.451 214.223C472.327 191.545 465.059 173.49 465.059 173.49C465.059 173.49 428.587 159.678 424.799 168.626C421.678 176.014 424.22 183.255 434.015 199.853Z" fill="#003E98"/>
<path d="M461.847 261.575C461.847 261.575 450.26 269.018 451.386 271.437C451.535 271.757 457.936 283.224 457.936 283.224L466.194 297.815C466.194 297.815 469.667 295.758 468.025 291.056C466.382 286.354 465.38 277.538 469.597 271.772C474.025 265.721 461.847 261.575 461.847 261.575Z" fill="#060632"/>
<path d="M467.512 274.649C467.512 274.649 460.274 268.263 458.99 263.579C458.99 263.579 488.824 227.835 495.295 219.821C495.589 219.454 495.518 219.051 495.124 218.608C490.24 213.1 435.956 201.901 428.862 190.863C426.747 187.621 425.197 184.044 424.278 180.284C422.67 173.548 423.943 168.896 423.943 168.896L478.153 167.327C478.153 167.327 523.289 195.433 528.405 214.596C533.521 233.76 467.512 274.649 467.512 274.649Z" fill="#164D9D"/>
<path d="M495.132 218.617C490.247 213.109 435.964 201.91 428.87 190.872C426.755 187.63 425.205 184.053 424.285 180.293V173.443L447.328 169.819C447.328 169.819 453.86 189.923 473.212 197.464C491.338 204.525 494.77 217.05 495.132 218.617Z" fill="#003E98"/>
<path d="M463.325 73.3267C452.355 76.1596 434.179 66.0005 434.179 66.0005C434.179 66.0005 441.232 61.2545 443.853 50.8338C443.984 50.3088 444.104 49.77 444.211 49.2175C445.361 48.9736 447.526 48.5122 449.845 48.0244L458.22 55.5269C458.22 55.5269 458.029 58.6449 456.983 63.9992C456.801 64.9337 456.59 65.9358 456.351 67.0055C459.043 68.6683 461.407 70.8108 463.325 73.3267Z" fill="#FFF0F0"/>
<path d="M422.566 118.785C424.139 139.912 422.073 172.044 423.854 177.609C425.391 182.411 442.914 179.558 449.911 177.953C452.497 177.366 455.633 176.513 458.874 175.511C467.908 172.714 477.749 168.72 478.807 165.755C478.848 165.644 478.881 165.53 478.904 165.414C478.995 165.004 478.988 164.578 478.884 164.171C478.534 162.66 477.176 161.023 477.018 157.282C476.838 153.104 476.865 148.172 476.706 142.883C476.706 142.295 476.692 141.637 476.627 141.043V140.826V140.488C476.477 134.587 476.168 128.383 475.81 122.232C475.584 118.368 475.319 114.542 475.017 110.874C474.229 101.409 473.168 92.9924 471.76 87.6586C469.465 78.9865 464.414 73.3295 459.791 69.183L456.459 66.3236C452.738 67.1376 448.342 66.5969 444.363 64.7132C440.058 62.6561 438.571 61.2044 437.818 61.7568C427.865 69.4474 420.712 92.9571 422.566 118.785Z" fill="#CCABD8"/>
<path d="M458.874 175.512C467.907 172.714 477.749 168.72 478.807 165.755C478.848 165.644 478.88 165.53 478.904 165.414C478.904 165 478.904 164.585 478.883 164.171C478.534 162.661 477.176 161.024 477.017 157.283C476.838 153.104 476.865 148.173 476.706 142.883C476.706 142.295 476.691 141.637 476.626 141.043V140.826V140.488L440.095 93.9683C440.095 93.9683 415.545 145.09 458.874 175.512Z" fill="#B78EC6"/>
<path d="M458.233 55.5269C458.233 55.5269 458.042 58.6449 456.995 63.9992C448.814 61.3544 445.105 53.9665 443.865 50.8338C443.996 50.3088 444.116 49.77 444.224 49.2175C445.373 48.9736 447.539 48.5122 449.857 48.0244L458.233 55.5269Z" fill="#FFDCDB"/>
<path d="M459.322 60.2496C459.322 60.2496 441.482 57.2727 443.509 46.1938C445.537 35.1149 444.594 27.2656 456.069 28.6967C467.545 30.1279 468.979 34.7622 469.202 38.6237C469.426 42.4852 464.016 60.7404 459.322 60.2496Z" fill="#FFF0F0"/>
<path d="M529.528 155.073L531.102 155.584L544.485 114.393L542.912 113.882L529.528 155.073Z" fill="#3A49CD"/>
<path d="M485.655 154.644L531.095 155.611L531.153 152.894L485.713 151.926L485.655 154.644Z" fill="#3A49CD"/>
<path d="M486.583 156.769C486.583 156.769 501.182 160.618 506.66 160.213C512.138 159.807 516.687 157.206 517.377 155.846C518.068 154.485 519.514 152.075 515.784 152.522C512.055 152.969 506.968 153.759 506.81 153.042C506.651 152.325 509.848 152.393 509.848 152.393C509.848 152.393 510.815 150.988 509.598 150.923C508.382 150.859 504.835 149.91 503.515 150.568C502.196 151.226 500.979 153.662 500.018 153.56C499.057 153.457 487.799 148.49 487.799 148.49L486.583 156.769Z" fill="#FFF0F0"/>
<path d="M434.873 79.3952C434.873 79.3952 436.598 138.255 449.525 144.928C455.902 148.229 484.704 157.303 493.35 158.852C493.35 158.852 495.674 157.356 495.936 150.253C495.936 150.253 466.343 135.507 462.643 128.86C457.139 118.971 470.845 91.8612 463.616 82.3427C456.387 72.8242 443.013 67.611 434.873 79.3952Z" fill="#CCABD8"/>
<path d="M443.854 50.834C443.854 50.834 443.651 47.0313 445.996 44.8537C445.996 44.8537 445.179 41.0334 446.687 40.4133C448.194 39.7932 448.509 42.9905 449.199 42.488C449.89 41.9855 452.97 39.5963 454.289 36.0787C455.609 32.5611 467.684 36.8222 469.091 37.454C470.499 38.0858 475.022 35.7643 475.903 33.8806C475.903 33.8806 473.388 31.8675 472.259 30.3541C471.131 28.8407 463.211 18.6698 452.153 21.5585C441.094 24.4473 439.587 29.7282 440.216 34.2508C440.844 38.7735 439.325 49.3146 443.854 50.834Z" fill="#120E59"/>
<path d="M108.54 73.4295L118.059 72.5214C118.431 72.4851 118.805 72.5695 119.125 72.7622C119.445 72.9548 119.695 73.2455 119.837 73.5911L127.025 90.8854C127.126 91.1382 127.168 91.4111 127.146 91.6826C127.124 91.9542 127.04 92.217 126.9 92.4505C126.759 92.6839 126.567 92.8817 126.337 93.0282C126.107 93.1748 125.847 93.2661 125.576 93.2951L115.673 94.2414C115.295 94.2748 114.917 94.1856 114.594 93.9871C114.271 93.7886 114.021 93.4913 113.88 93.1394L107.08 75.801C106.986 75.5494 106.95 75.2795 106.976 75.012C107.002 74.7446 107.089 74.4866 107.23 74.2578C107.371 74.0289 107.562 73.8354 107.789 73.6918C108.016 73.5482 108.273 73.4585 108.54 73.4295Z" fill="#0D0D38"/>
<path d="M229.214 301.979L224.166 304.659C224.166 304.659 196.856 275.704 190.291 247.918C189.116 242.955 188.649 238.062 189.148 233.422C189.148 233.422 188.751 232.164 188.058 229.936C188.026 229.839 187.996 229.739 187.964 229.643C187.67 228.667 187.297 227.518 186.891 226.219C185.572 222.019 183.761 216.274 181.698 209.733C176.944 194.681 166.073 160.73 161.421 146.609L194.808 134.528C194.808 134.528 198.602 143.177 204.05 166.681C204.891 169.749 205.731 173.146 206.516 176.837C207.397 181.025 208.238 185.603 208.929 190.546C210.226 199.872 210.894 209.274 210.93 218.69C210.95 222.895 210.848 227.256 210.598 231.755C210.416 235.056 210.892 239.452 211.823 244.454C216.037 267.302 229.214 301.979 229.214 301.979Z" fill="#164D9D"/>
<path d="M247.498 314.756H220.506C220.506 314.756 219.498 310.451 221.27 307.521C222.839 304.929 222.237 303.454 221.076 301.309C222.509 301.929 224.062 302.221 225.622 302.164C226.968 302.088 228.39 301.476 229.636 300.753C230.812 302.076 235.772 307.715 237.327 308.832C239.087 310.099 246.954 309.649 247.498 314.756Z" fill="#0D0D38"/>
<path d="M208.934 190.528L187.964 229.613C187.67 228.638 187.297 227.489 186.891 226.19C185.572 221.99 183.761 216.245 181.698 209.703C176.944 194.651 166.073 160.701 161.421 146.58L194.808 134.499C194.808 134.499 198.602 143.148 204.05 166.651C204.891 169.719 205.731 173.117 206.516 176.808C207.412 181.007 208.244 185.585 208.934 190.528Z" fill="#003E98"/>
<path d="M118.035 104.309C117.867 104.456 109.868 96.2748 105.595 91.7433L109.874 89.1396L133.24 103.807L118.035 104.309Z" fill="#FFF1F0"/>
<path d="M160.888 306.307C160.888 306.307 160.259 310.892 162.017 314.756H173.193C173.193 314.756 173.278 311.418 170.427 307.227C167.577 303.037 160.888 306.307 160.888 306.307Z" fill="#0D0D38"/>
<path d="M182.925 7.94936C183.078 7.23525 184.982 -0.42008 196.864 1.22853C196.864 1.22853 190.936 0.911154 189.487 3.28563C189.487 3.28563 193.989 0.820054 197.034 2.40402C200.078 3.98798 200.987 9.94768 200.684 11.8079C200.381 13.6681 197.548 19.3368 195.418 19.4897C194.572 19.5149 193.729 19.37 192.94 19.0635C193.366 20.0764 193.731 21.1137 194.034 22.1698C197.063 32.6639 190.557 41.2714 186.751 39.5316C184.309 38.4179 182.825 42.6584 182.825 42.6584L161.47 18.2084C161.47 18.2084 173.889 0.899397 182.925 7.94936Z" fill="#12123C"/>
<path d="M161.07 73.5147C163.856 75.4484 167.35 77.0412 171.734 78.055C188.171 81.8519 194.471 67.9577 196.837 58.4215C195.114 57.4704 193.213 56.8879 191.253 56.7112C190.078 56.5702 188.814 56.4791 187.78 56.4173C185.934 55.0038 183.184 49.2175 182.575 40.2339L181.802 40.4425L168.849 43.9866C168.849 43.9866 169.436 48.1008 169.73 51.9975C169.954 55.045 169.989 57.9543 169.413 58.6654C168.402 58.8859 167.797 59.0299 167.797 59.0299C165.096 63.6319 162.844 68.4824 161.07 73.5147Z" fill="#FFF1F0"/>
<path d="M168.862 43.9982C168.862 43.9982 169.45 48.1124 169.744 52.0091C177.091 51.2744 180.491 44.2862 181.816 40.4541L168.862 43.9982Z" fill="#FFDCDB"/>
<path d="M166.672 47.8657C166.672 47.8657 184.093 46.9047 183.326 36.0638C182.559 25.223 184.295 17.7998 173.14 17.9555C161.985 18.1113 160.119 22.3989 159.493 26.0781C158.867 29.7574 162.12 47.8363 166.672 47.8657Z" fill="#FFF1F0"/>
<path d="M159.578 20.0155C162.034 16.5625 164.118 17.1326 165.326 18.0319C174.462 12.1192 181.145 19.4101 181.145 19.4101C182.867 27.1037 188.785 31.165 188.785 31.165C188.785 31.165 185.756 33.3514 178.309 31.9966C176.034 31.5823 173.927 30.1394 172.094 28.335C174.248 31.3455 176.804 34.0476 179.69 36.3665C170.668 32.9576 166.29 21.0617 165.849 19.801C164.856 20.8325 162.91 23.0541 162.416 25.1318C161.749 27.953 161.764 33.6541 160.095 33.5894C160.104 33.5806 155.895 25.1935 159.578 20.0155Z" fill="#12123C"/>
<path d="M163.854 58.1661C163.854 58.1661 192.233 51.2748 204.573 61.4545L198.402 147.462L142.901 134.052C142.901 134.052 144.462 128.61 155.106 114.137C165.75 99.6635 161.121 78.4402 163.854 58.1661Z" fill="#FFF1F0"/>
<path d="M180.396 137.887C180.396 137.887 180.363 138.181 180.307 138.734C180.281 138.972 180.249 139.263 180.213 139.598C179.975 141.828 179.523 146.104 178.938 151.667C177.416 166.252 175.027 189.682 173.398 208.172C172.123 222.631 171.315 234.074 171.753 235.911C173.066 241.439 171.753 307.536 171.753 307.536C167.033 309.799 159.88 307.536 159.88 307.536C159.88 307.536 147.317 247.974 149.075 239.696C150.832 231.418 147.899 224.35 147.899 224.35C138.143 178.915 139.213 153.733 141.14 141.678C141.513 139.191 142.071 136.735 142.809 134.331C142.994 133.715 143.216 133.11 143.477 132.521C165.006 126.714 180.396 137.887 180.396 137.887Z" fill="#164D9D"/>
<path d="M198.406 147.459C192.228 150.04 185.629 151.466 178.937 151.667C173.555 151.822 168.175 151.312 162.918 150.148C152.277 147.832 144.172 143.547 141.148 141.678C141.521 139.191 142.079 136.736 142.817 134.332C149.368 129.665 165.569 134.129 178.802 139.078L180.212 139.612C190.348 143.474 198.406 147.459 198.406 147.459Z" fill="#003E98"/>
<path d="M208.397 85.9839C207.027 96.3311 201.547 108.994 199.581 115.809C199.581 115.809 202.851 139.471 199.727 145.966C199.372 146.709 198.934 147.227 198.396 147.459C186.824 152.502 141.753 147.606 139.848 133.059C139.158 127.769 157.016 109.194 158.068 106.94C158.5 106.005 158.95 102.984 156.866 96.719C153.898 105.867 148.418 116.435 142.905 118.236C136.845 120.217 112.886 102.367 112.886 102.367C112.886 102.367 112.748 100.198 115.777 98.1472C117.726 96.8278 122.198 96.384 122.198 96.384L137.518 103.24C139.44 99.9487 144.23 77.1913 149.567 66.9176C153.59 59.1947 164.325 58.075 164.325 58.075C164.325 58.075 168.792 65.1632 179.606 64.1582C190.421 63.1531 192.389 56.5381 192.389 56.5381C192.389 56.5381 201.973 57.8105 204.926 60.1938C205.44 60.6141 210.195 72.4306 208.397 85.9839Z" fill="#CCABD8"/>
<path d="M201.014 115.997C201.014 115.997 202.862 139.471 199.738 145.966C191.307 141.734 180.316 132.601 183.661 118.324C188.518 97.5859 208.399 85.9985 208.399 85.9985C207.029 96.331 202.971 109.182 201.014 115.997Z" fill="#B78EC6"/>
<path d="M192.394 99.9048C192.394 99.9048 180.39 101.644 179.432 102.55C178.474 103.455 175.162 108.653 175.57 110.464C175.979 112.274 175.938 114.143 176.672 114.014C177.407 113.884 179.802 109.282 180.71 109.071C181.618 108.859 182.362 108.239 182.473 108.644C182.585 109.05 180.631 110.995 180.725 111.533C180.819 112.071 182.359 111.439 183.049 110.372C183.74 109.306 185.462 108.774 185.724 108.11C185.985 107.446 187.169 105.241 188.786 105.341C190.402 105.441 192.394 99.9048 192.394 99.9048Z" fill="#FFF1F0"/>
<path d="M204.072 99.4312L192.394 99.9043L188.397 105.35L204.281 105.882L204.072 99.4312Z" fill="#FFF1F0"/>
<path d="M192.393 56.5439C192.393 56.5439 206.31 58.1955 210.142 64.164C214.988 71.7106 232.109 96.7396 231.742 104.313C231.742 104.313 221.074 108.562 192.401 106.285C192.401 106.285 191.881 101.947 197.911 98.4675C197.911 98.4675 213.307 96.3605 215.003 94.8647L203.574 82.719L192.393 56.5439Z" fill="#CCABD8"/>
<path d="M106.463 73.6177L115.978 72.7096C116.35 72.6764 116.723 72.7621 117.043 72.9543C117.363 73.1466 117.614 73.4354 117.759 73.7793L124.944 91.0736C125.049 91.326 125.094 91.5995 125.074 91.8723C125.054 92.145 124.971 92.4092 124.83 92.6437C124.689 92.8782 124.495 93.0763 124.264 93.2221C124.033 93.368 123.77 93.4575 123.498 93.4833L113.592 94.4296C113.214 94.463 112.836 94.3738 112.513 94.1753C112.19 93.9768 111.94 93.6795 111.799 93.3276L105.014 75.9922C104.915 75.7414 104.876 75.4712 104.9 75.2028C104.923 74.9345 105.008 74.6751 105.149 74.4452C105.289 74.2152 105.481 74.0208 105.708 73.8773C105.936 73.7337 106.195 73.6449 106.463 73.6177Z" fill="#120E59"/>
<path d="M105.601 91.7435C105.601 91.7435 103.089 87.4089 103.277 86.3422C103.465 85.2754 106.065 80.3207 107.391 79.827C109.777 78.9454 113.13 78.4047 112.207 80.9173C111.599 82.5777 109.192 84.9815 109.613 85.7339C110.033 86.4862 109.868 89.1398 109.868 89.1398L105.601 91.7435Z" fill="#FFF1F0"/>
<path d="M484.536 278.427C480.955 300.158 457.551 313.997 433.546 313.997H386L389.72 187.332C389.72 187.332 435.085 173.537 446.465 186.66C456.447 198.158 483.518 243.67 484.943 270.608C485.09 273.221 484.954 275.841 484.536 278.427Z" fill="#A8C5EF"/>
<path d="M364.649 200.57C364.649 200.57 425.774 169.375 437.347 189.752C443.491 200.573 460.407 243.742 461.656 270.831C462.869 297.156 440.065 314.462 416.605 314.462H374.94L364.649 200.57Z" fill="#3662C1"/>
<path d="M376.14 217.873C375.625 220.518 370.676 222.986 363.333 225.161C362.04 225.552 360.675 225.928 359.239 226.286C334.245 232.672 289.977 236.234 285.757 234.353C279.926 231.749 244.139 104.6 244.139 104.6C244.139 104.6 278.301 103.316 305.431 102.69C314.712 102.478 323.169 102.343 329.155 102.361C329.844 102.361 330.531 102.409 331.213 102.505C333.529 102.779 335.671 103.875 337.249 105.593C341.619 110.295 342.7 119.558 346.744 129.805C350.743 139.941 355.651 152.586 360.306 165.138C361.505 168.37 362.689 171.603 363.832 174.777C364.155 175.676 364.476 176.568 364.793 177.454C371.676 196.702 376.974 213.579 376.14 217.873Z" fill="#BED2FA"/>
<path d="M484.908 278.692C481.496 300.548 459.195 314.465 436.32 314.465H414.097C428.917 304.421 442.318 273.473 484.908 278.692Z" fill="#8EB0E1"/>
<path d="M364.795 177.454C363.661 177.269 362.194 177.028 360.534 176.746C360.214 176.437 359.949 176.077 359.749 175.679C359.079 174.21 359.538 169.984 360.305 165.138C355.65 152.587 350.742 139.942 346.742 129.806C342.699 119.559 341.617 110.287 337.247 105.594C335.67 103.875 333.528 102.779 331.211 102.505C327.606 102.555 323.797 102.617 319.871 102.691C318.475 105.459 316.071 108.068 311.916 110.255C293.381 120.011 307.132 140.115 307.132 140.115C307.264 140.206 314.478 154.562 314.478 154.562C314.452 153.56 315.425 151.764 317.091 149.481C318.322 158.062 320.323 166.819 322.71 173.099C321.402 179.726 318.043 189.597 316.245 197.146C314.805 203.171 314.361 207.708 316.738 207.931C317.032 207.957 317.326 207.957 317.62 207.931C317.474 210.225 317.975 212.512 319.066 214.535C323.712 223.512 346.058 225.114 363.326 225.161C370.672 222.986 375.618 220.524 376.132 217.873C376.973 213.58 371.674 196.703 364.795 177.454Z" fill="#93B3F4"/>
<path d="M449.241 294.893C440.496 307.042 427.081 314.833 412.137 314.583L347.897 314.615H317.117L351.747 200.593C351.747 200.593 439.397 191.874 450.194 203.503C455.213 208.901 458.031 233.348 459.597 257.992C460.506 271.88 456.462 284.872 449.241 294.893Z" fill="#5076C9"/>
<path d="M449.243 294.894C440.497 307.042 427.082 314.833 412.139 314.583L347.898 314.615C355.457 308.268 379.231 290.262 404.689 291.106C423.985 291.77 439.307 291.491 449.243 294.894Z" fill="#3662C1"/>
<path d="M370.269 120.764C370.269 120.764 375.605 128.663 378.65 145.267C381.315 159.807 383.646 165.176 387.504 168.159C391.363 171.142 412.807 179.946 412.807 179.946L411.202 183.705C411.202 183.705 379.758 179.42 376.231 174.166C372.705 168.911 359.234 137.861 360.277 130.711C361.32 123.561 370.269 120.764 370.269 120.764Z" fill="#FFECEC"/>
<path d="M447.251 294.221C446.957 297.289 451.236 298.041 456.182 298.279C461.127 298.517 459.632 299.54 466.408 300.765C473.185 301.99 475.9 300.139 476.4 299.222C476.838 298.411 473.684 297.142 470.328 295.696C469.905 295.516 469.482 295.331 469.059 295.146C465.28 293.486 463.161 290.098 460.213 286.953C457.425 283.979 454.774 274.449 454.774 274.449L445.567 272.483C445.567 272.483 448.153 281.058 449.049 284.72C449.578 286.874 448.797 289.281 448.106 291.114C447.682 292.106 447.395 293.151 447.251 294.221Z" fill="#FDB3B1"/>
<path d="M456.177 298.279C461.123 298.526 459.627 299.54 466.403 300.765C473.18 301.99 475.895 300.139 476.395 299.222C476.833 298.411 473.68 297.142 470.324 295.696L470.271 295.754C466.923 296.72 463.376 296.762 460.006 295.875C455.524 294.658 451.19 291.981 448.101 291.114C447.681 292.104 447.397 293.146 447.255 294.212C446.97 297.277 451.237 298.035 456.177 298.279Z" fill="#060632"/>
<path d="M355.565 185.018C355.565 185.018 416.755 180.413 428.274 187.684C439.794 194.954 458.273 279.645 458.273 279.645C458.273 279.645 457.13 280.559 454.585 280.82C452.216 281.076 447 279.683 447 279.683C447 279.683 420.446 241.791 418.577 232.246C416.708 222.701 417.163 214.182 412.905 213.956C408.647 213.729 355.556 220.421 347.528 206.262C339.499 192.104 346.135 178.109 346.135 178.109L355.565 185.018Z" fill="#B78EC6"/>
<path d="M423.85 304.051C423.556 307.116 427.838 307.871 432.781 308.109C437.723 308.347 436.231 309.367 443.01 310.595C449.79 311.823 452.499 309.966 453.002 309.052C453.44 308.238 450.289 306.969 446.93 305.526C446.51 305.347 446.087 305.161 445.664 304.976C441.885 303.313 439.763 299.925 436.818 296.783C434.027 293.806 431.379 284.279 431.379 284.279L422.169 282.31C422.169 282.31 424.755 290.888 425.651 294.55C426.18 296.704 425.401 299.111 424.711 300.941C424.287 301.935 423.997 302.981 423.85 304.051Z" fill="#FDB3B1"/>
<path d="M432.766 308.109C437.712 308.356 436.216 309.367 442.996 310.595C449.775 311.823 452.485 309.966 452.987 309.052C453.425 308.238 450.275 306.969 446.916 305.526L446.866 305.582C443.518 306.549 439.971 306.592 436.601 305.705C432.117 304.486 427.785 301.808 424.696 300.941C424.277 301.933 423.991 302.975 423.847 304.042C423.556 307.116 427.823 307.856 432.766 308.109Z" fill="#060632"/>
<path d="M343.581 188.815C343.581 188.815 397.947 191.389 409.167 199.1C420.387 206.812 435.56 292.152 435.56 292.152C435.56 292.152 434.384 293.033 431.831 293.198C429.453 293.362 424.296 291.767 424.296 291.767C424.296 291.767 399.237 252.87 397.742 243.26C396.246 233.651 397.03 225.155 392.784 224.746C388.538 224.338 335.229 228.964 327.756 214.514C320.283 200.064 343.581 188.815 343.581 188.815Z" fill="#CCABD8"/>
<path d="M362.95 69.1977C360.537 67.6049 357.543 67.2493 355.433 67.2346C356.021 66.7115 357.09 66.5793 357.09 66.5793C355.8 66.2854 352.806 67.3962 352.806 67.3962C335.144 59.2031 330.516 85.7044 330.472 91.9315C330.427 98.1586 330.004 105.297 320.586 110.254C302.051 120.011 315.802 140.115 315.802 140.115C315.934 140.206 323.148 154.564 323.148 154.564C323.025 149.521 347.91 124.619 360.499 117.504C363.732 113.39 365.278 105.808 365.395 105.212C364.487 111.233 363.223 114.562 362.163 116.414C373.024 107.692 369.345 73.4176 362.95 69.1977Z" fill="#A83F3F"/>
<path d="M341.286 111.665C341.286 111.665 346.088 111.874 351.148 112.353C354.586 112.679 358.257 113.058 360.196 113.869C364.986 115.87 364.484 124.354 354.431 122.782C344.377 121.21 340.592 114.195 341.286 111.665Z" fill="#FDB3B1"/>
<path d="M359.782 117.851C359.841 117.88 361.213 125.148 354.633 124.857C350.311 124.666 340.992 119.438 341.815 115.747C342.206 113.983 345.471 109.426 346.129 98.9961L346.913 99.2047L360.138 102.752C360.138 102.752 359.55 106.951 359.277 110.924C359.05 114.266 359.041 117.442 359.782 117.851Z" fill="#FFF0F0"/>
<path d="M360.141 102.758C360.141 102.758 359.553 106.957 359.28 110.931C351.795 110.219 348.286 103.111 346.914 99.2109L360.141 102.758Z" fill="#FFDCDB"/>
<path d="M345.629 97.6593C345.629 97.6593 342.103 91.1942 341.515 85.8134C341.092 81.9931 343.96 68.0548 357.948 71.02C360.764 71.6015 363.414 72.8065 365.704 74.5464C368.642 76.821 372.756 81.5993 366.994 93.5216L365.433 97.577L345.629 97.6593Z" fill="#A83F3F"/>
<path d="M362.393 106.687C362.393 106.687 344.629 105.806 345.349 94.7443C346.069 83.683 344.268 76.1306 355.634 76.2305C367.001 76.3304 368.932 80.6944 369.587 84.4589C370.243 88.2233 367.034 106.634 362.393 106.687Z" fill="#FFF0F0"/>
<path d="M363.747 76.5004C363.747 76.5004 358.026 89.1368 350.441 90.5621C342.856 91.9874 339.756 89.7686 339.756 89.7686C339.756 89.7686 345.78 85.6074 347.493 77.7552C347.493 77.7552 360.494 70.0822 363.747 76.5004Z" fill="#A83F3F"/>
<path d="M362.475 77.4612C362.475 77.4612 365.91 80.5998 366.607 83.4738C367.303 86.3479 367.315 92.1665 369.017 92.0842C369.017 92.0842 373.266 83.512 369.484 78.2517C365.475 72.6829 362.475 77.4612 362.475 77.4612Z" fill="#A83F3F"/>
<path d="M380.168 185.947C378.731 187.666 374.243 188.195 369.445 188.982C365.671 189.605 361.704 190.387 358.886 192.045C352.482 195.803 331.556 208.501 325.429 207.931C323.048 207.708 323.495 203.17 324.935 197.149C327.201 187.639 331.947 174.433 331.947 168.691C331.947 165.555 332.99 158.138 334.383 149.66C334.494 148.975 334.609 148.287 334.727 147.602C337.48 131.116 341.295 111.677 341.295 111.677C341.295 111.677 345.55 120.954 353.84 120.954C362.13 120.954 360.205 113.875 360.205 113.875C360.205 113.875 367.769 114.757 369.556 116.69C371.343 118.624 375.877 126.937 376.777 129.206C376.777 129.206 376.959 132.092 369.809 133.467C369.809 133.467 371.552 141.308 371.757 146.533C371.91 150.391 369.112 162.472 368.322 169.987C368.028 172.649 367.999 174.738 368.434 175.685C368.986 176.898 370.785 178.106 372.809 179.293C376.844 181.639 381.875 183.904 380.168 185.947Z" fill="#164D9D"/>
<path d="M372.809 179.287C377.4 187.11 360.364 189.464 357.546 191.119C351.142 194.88 331.559 208.51 325.429 207.931C323.048 207.708 323.495 203.17 324.935 197.149C327.201 187.639 331.947 174.433 331.947 168.691C331.947 165.555 332.99 158.138 334.383 149.659L341.762 142.571C341.762 142.571 349.673 163.013 357.211 166.375C360.795 167.916 364.515 169.123 368.322 169.981C368.028 172.643 367.999 174.732 368.434 175.679C368.986 176.892 370.776 178.1 372.809 179.287Z" fill="#003E98"/>
<path d="M339.027 117.784C339.027 117.784 332.717 113.963 326.614 121.222C320.51 128.48 330.951 180.463 339.994 183.134C350.035 186.1 379.049 182.658 379.049 182.658L378.491 178.124C378.491 178.124 347.605 172.202 346.321 170.554C345.036 168.905 342.236 118.624 339.027 117.784Z" fill="#FFF0F0"/>
<path d="M341.286 111.665C341.286 111.665 328.327 112.841 324.562 117.096C320.798 121.351 319.699 132.912 319.699 132.912C319.699 132.912 331.113 142.125 344.863 138.548L341.286 111.665Z" fill="#164D9D"/>
<path d="M399.196 185.089H382.078V187.111H399.196V185.089Z" fill="#EB6453"/>
<path d="M395.547 186.834C395.714 186.164 411.284 161.717 411.284 161.717H445.928L428.552 186.176L395.547 186.834Z" fill="#EB6453"/>
<path d="M397.005 187.111C397.173 186.441 412.792 161.717 412.792 161.717H445.929L429.396 187.111H397.005Z" fill="#C22511"/>
<path d="M426.215 174.495C426.028 174.995 425.701 175.43 425.273 175.748C424.845 176.067 424.335 176.255 423.802 176.29C422.812 176.29 422.286 175.485 422.627 174.495C422.813 173.995 423.14 173.56 423.568 173.242C423.996 172.924 424.507 172.736 425.039 172.702C426.03 172.702 426.556 173.504 426.215 174.495Z" fill="#CCABD8"/>
<path d="M375.963 177.857C375.963 177.857 386.02 175.908 387.154 176.387C388.288 176.866 394.615 182.559 393.966 183.687C393.316 184.816 390.733 185.632 387.795 184.66C384.856 183.687 378.549 183.19 377.415 181.739C376.281 180.287 375.963 177.857 375.963 177.857Z" fill="#FFF0F0"/>
<path d="M396.008 279.836C392.331 301.033 372.172 314.465 351.507 314.465H309.842L313.101 187.075C313.101 187.075 352.853 173.202 362.838 186.4C371.587 197.963 395.308 243.737 396.557 270.829C396.704 273.842 396.52 276.862 396.008 279.836Z" fill="#A8C5EF"/>
<path d="M396.007 279.836C392.331 301.033 372.172 314.465 351.507 314.465H318.164C333.772 303.886 354.786 274.649 396.007 279.836Z" fill="#8EB0E1"/>
<path d="M331.416 314.371L330.481 314.433C329.823 314.468 329.162 314.489 328.501 314.501H327.84H286.172V314.48L283.765 314.509C279.474 314.562 274.993 314.612 270.834 314.647L268.777 314.665H268.028C263.914 314.692 260.29 314.703 257.698 314.686C254.249 314.68 250.805 314.415 247.395 313.892C243.441 313.301 239.58 312.196 235.911 310.607C234.661 310.056 233.443 309.437 232.261 308.752C230.678 307.842 229.167 306.813 227.741 305.673C224.044 302.734 220.847 298.984 218.129 294.385C216.116 290.93 214.443 287.289 213.133 283.512C211.326 278.413 209.871 272.609 208.751 266.047C207.15 256.681 206.236 245.77 205.96 233.163C205.848 228.085 205.839 222.727 205.933 217.088C206.082 208.076 206.485 198.318 207.141 187.813C208.055 173.043 209.457 156.751 211.305 138.816C212.992 122.435 214.937 110.986 217.77 108.377C221.943 104.53 230.651 102.981 236.707 102.361C240.469 101.976 243.199 101.947 243.199 101.947C250.599 101.947 257.175 107.26 259.55 115.153C264.384 131.228 273.018 159.966 282.002 190.026C282.049 190.176 282.093 190.32 282.14 190.478L283.688 195.668C283.768 195.932 283.847 196.197 283.929 196.461L285.502 195.759L285.557 195.736C287.711 194.781 290.148 193.734 292.778 192.668C294.149 192.115 295.561 191.559 297.012 190.998C301.127 189.42 305.564 187.863 310.063 186.523C312.059 185.935 314.069 185.368 316.067 184.877C318.633 184.239 321.177 183.702 323.658 183.302L323.875 183.267L324.757 183.134C335.457 181.562 344.74 182.652 348.581 189.429C354.726 200.282 371.641 243.575 372.89 270.746C374.045 295.807 353.559 312.711 331.416 314.371Z" fill="#5076C9"/>
<path d="M264.587 201.551C264.587 201.551 243.202 114.43 241.665 107.107C240.977 103.842 238.856 102.664 236.722 102.361C240.481 101.976 243.217 101.947 243.217 101.947C250.613 101.947 257.19 107.236 259.565 115.115C264.746 132.283 274.282 163.939 283.956 196.185C283.442 196.185 264.587 201.551 264.587 201.551Z" fill="#A8C5EF"/>
<path d="M585.292 315H0.70874C0.31758 315 0.000488281 315.408 0.000488281 315.912V316.088C0.000488281 316.592 0.31758 317 0.70874 317H585.292C585.683 317 586 316.592 586 316.088V315.912C586 315.408 585.683 315 585.292 315Z" fill="#4E92F9"/>
</svg>
